<svg width="47" height="47" viewBox="0 0 47 47" fill="none" xmlns="http://www.w3.org/2000/svg">
<g filter="url(#filter0_ii_137_191)">
<rect x="2.09157" y="1.43239" width="43.3709" height="44.0087" rx="7.65368" fill="url(#paint0_linear_137_191)"/>
<rect x="2.09157" y="1.43239" width="43.3709" height="44.0087" rx="7.65368" stroke="white" stroke-width="2.55123"/>
<path d="M21.6817 26.6965C21.5447 26.6965 21.4248 26.6435 21.322 26.5375C21.2193 26.4315 21.1679 26.3167 21.1679 26.193C21.1679 26.1223 21.1679 26.0517 21.1679 25.981C21.1679 25.9103 21.1765 25.8397 21.1936 25.769C21.3306 25.2213 21.5447 24.7178 21.8358 24.2585C22.144 23.7815 22.4865 23.3398 22.8633 22.9334C23.2572 22.5271 23.6339 22.1561 23.9935 21.8204C24.3703 21.4671 24.6785 21.1314 24.9183 20.8134C25.158 20.4777 25.2865 20.1597 25.3036 19.8594C25.3036 19.5767 25.2351 19.3382 25.0981 19.1439C24.9782 18.9319 24.807 18.7729 24.5844 18.6669C24.3789 18.5609 24.1391 18.5079 23.8651 18.5079C23.2657 18.5079 22.8205 18.6492 22.5294 18.9319C22.2382 19.1969 22.0242 19.5502 21.8872 19.9919C21.8187 20.1862 21.7245 20.3452 21.6046 20.4689C21.4847 20.5926 21.2878 20.6544 21.0138 20.6544H17.0579C16.9038 20.6544 16.7582 20.5837 16.6212 20.4424C16.5013 20.3011 16.4414 20.1156 16.4414 19.8859C16.4585 19.1969 16.6298 18.5079 16.9552 17.8189C17.2805 17.1298 17.76 16.5027 18.3937 15.9373C19.0444 15.3543 19.8493 14.895 20.8083 14.5593C21.7844 14.206 22.9318 14.0293 24.2504 14.0293C25.6375 14.0293 26.7764 14.1971 27.6669 14.5328C28.5574 14.8685 29.2509 15.3013 29.7476 15.8313C30.2613 16.3437 30.6209 16.8825 30.8264 17.4479C31.0319 18.0132 31.1261 18.5255 31.109 18.9849C31.109 19.5856 31.0062 20.1332 30.8007 20.6279C30.6124 21.1226 30.3641 21.5819 30.0558 22.0059C29.7476 22.4123 29.4222 22.8098 29.0797 23.1984C28.7372 23.5695 28.4118 23.9405 28.1036 24.3115C27.7953 24.6648 27.5299 25.0358 27.3072 25.4245C27.273 25.5128 27.2302 25.6012 27.1788 25.6895C27.1445 25.7602 27.1103 25.8485 27.076 25.9545C26.939 26.2018 26.8106 26.3873 26.6907 26.511C26.588 26.6347 26.4339 26.6965 26.2284 26.6965H21.6817ZM21.8358 32.8446C21.6474 32.8446 21.4847 32.7828 21.3477 32.6591C21.2279 32.5178 21.1679 32.3499 21.1679 32.1556V28.5515C21.1679 28.3572 21.2279 28.1894 21.3477 28.048C21.4847 27.9067 21.6474 27.836 21.8358 27.836H25.843C26.0143 27.836 26.1684 27.9067 26.3054 28.048C26.4424 28.1894 26.5109 28.3572 26.5109 28.5515V32.1556C26.5109 32.3499 26.4424 32.5178 26.3054 32.6591C26.1684 32.7828 26.0143 32.8446 25.843 32.8446H21.8358Z" fill="white"/>
</g>
<defs>
<filter id="filter0_ii_137_191" x="0.816406" y="-5.03739" width="45.9219" height="51.7542" filterUnits="userSpaceOnUse" color-interpolation-filters="sRGB">
<feFlood flood-opacity="0" result="BackgroundImageFix"/>
<feBlend mode="normal" in="SourceGraphic" in2="BackgroundImageFix" result="shape"/>
<feColorMatrix in="SourceAlpha" type="matrix" values="0 0 0 0 0 0 0 0 0 0 0 0 0 0 0 0 0 0 127 0" result="hardAlpha"/>
<feOffset dy="-5.19462"/>
<feGaussianBlur stdDeviation="3.18904"/>
<feComposite in2="hardAlpha" operator="arithmetic" k2="-1" k3="1"/>
<feColorMatrix type="matrix" values="0 0 0 0 0.12549 0 0 0 0 0.160784 0 0 0 0 0.266667 0 0 0 1 0"/>
<feBlend mode="normal" in2="shape" result="effect1_innerShadow_137_191"/>
<feColorMatrix in="SourceAlpha" type="matrix" values="0 0 0 0 0 0 0 0 0 0 0 0 0 0 0 0 0 0 127 0" result="hardAlpha"/>
<feOffset dy="-2.59731"/>
<feComposite in2="hardAlpha" operator="arithmetic" k2="-1" k3="1"/>
<feColorMatrix type="matrix" values="0 0 0 0 0.443137 0 0 0 0 0.458824 0 0 0 0 0.52549 0 0 0 1 0"/>
<feBlend mode="normal" in2="effect1_innerShadow_137_191" result="effect2_innerShadow_137_191"/>
</filter>
<linearGradient id="paint0_linear_137_191" x1="23.777" y1="2.70801" x2="23.777" y2="44.1655" gradientUnits="userSpaceOnUse">
<stop stop-color="#333A55"/>
<stop offset="1" stop-color="#2D3A60"/>
</linearGradient>
</defs>
</svg>
