<svg width="36" height="37" viewBox="0 0 36 37" fill="none" xmlns="http://www.w3.org/2000/svg">
<g filter="url(#filter0_ii_137_278)">
<rect x="1.01538" y="1.62671" width="33.4769" height="33.9692" rx="5.90769" fill="url(#paint0_linear_137_278)"/>
<rect x="1.01538" y="1.62671" width="33.4769" height="33.9692" rx="5.90769" stroke="white" stroke-width="1.96923"/>
<path fill-rule="evenodd" clip-rule="evenodd" d="M22.5636 11.2557C23.4228 12.1148 23.4228 13.5078 22.5636 14.367L18.3113 18.6193L22.5636 22.8717C23.4228 23.7308 23.4228 25.1238 22.5636 25.983C21.7045 26.8421 20.3115 26.8421 19.4524 25.983L13.6444 20.175C12.7852 19.3158 12.7852 17.9228 13.6444 17.0637L19.4524 11.2557C20.3115 10.3965 21.7045 10.3965 22.5636 11.2557Z" fill="white"/>
</g>
<defs>
<filter id="filter0_ii_137_278" x="0.03125" y="-3.36702" width="35.4453" height="39.9471" filterUnits="userSpaceOnUse" color-interpolation-filters="sRGB">
<feFlood flood-opacity="0" result="BackgroundImageFix"/>
<feBlend mode="normal" in="SourceGraphic" in2="BackgroundImageFix" result="shape"/>
<feColorMatrix in="SourceAlpha" type="matrix" values="0 0 0 0 0 0 0 0 0 0 0 0 0 0 0 0 0 0 127 0" result="hardAlpha"/>
<feOffset dy="-4.0096"/>
<feGaussianBlur stdDeviation="2.46154"/>
<feComposite in2="hardAlpha" operator="arithmetic" k2="-1" k3="1"/>
<feColorMatrix type="matrix" values="0 0 0 0 0.12549 0 0 0 0 0.160784 0 0 0 0 0.266667 0 0 0 1 0"/>
<feBlend mode="normal" in2="shape" result="effect1_innerShadow_137_278"/>
<feColorMatrix in="SourceAlpha" type="matrix" values="0 0 0 0 0 0 0 0 0 0 0 0 0 0 0 0 0 0 127 0" result="hardAlpha"/>
<feOffset dy="-2.0048"/>
<feComposite in2="hardAlpha" operator="arithmetic" k2="-1" k3="1"/>
<feColorMatrix type="matrix" values="0 0 0 0 0.443137 0 0 0 0 0.458824 0 0 0 0 0.52549 0 0 0 1 0"/>
<feBlend mode="normal" in2="effect1_innerShadow_137_278" result="effect2_innerShadow_137_278"/>
</filter>
<linearGradient id="paint0_linear_137_278" x1="17.7538" y1="2.61133" x2="17.7538" y2="34.6113" gradientUnits="userSpaceOnUse">
<stop stop-color="#A0B862"/>
<stop offset="1" stop-color="#A0B862"/>
</linearGradient>
</defs>
</svg>
